<svg xmlns="http://www.w3.org/2000/svg" width="30" height="30" viewBox="0 0 30 30">
    <defs>
        <clipPath id="ddx8trnfna">
            <path data-name="사각형 355256" transform="translate(185.911 272.911)" style="fill:#fff;stroke:#707070" d="M0 0h30v30H0z"/>
        </clipPath>
    </defs>
    <g data-name="마스크 그룹 474397" transform="translate(-185.911 -272.911)" style="clip-path:url(#ddx8trnfna)">
        <g data-name="그룹 474678" transform="translate(185.007 271.708)">
            <circle data-name="타원 97" cx="13.493" cy="13.493" r="13.493" transform="rotate(-77.083 16.509 13.151)" style="fill:#f8f8f8"/>
            <g data-name="그룹 474677" transform="translate(5.151 6.594)">
                <ellipse data-name="타원 98" cx="5.249" cy="7.27" rx="5.249" ry="7.27" transform="translate(5.767 .579)" style="fill:#ebebeb"/>
                <path data-name="패스 862521" d="M347.339 125.31a21.017 21.017 0 0 0-10.933 2.707 13.486 13.486 0 0 0 21.98.073 20.873 20.873 0 0 0-11.047-2.78z" transform="translate(-336.406 -110.657)" style="fill:#ebebeb"/>
                <rect data-name="사각형 355255" width="5.609" height="8.569" rx="2.804" transform="translate(8.212 9.574)" style="fill:#ebebeb"/>
                <path data-name="패스 862522" d="M361.337 87.15c.157 1.166-.1 2.176-.578 2.257s-.99-.8-1.147-1.964.1-2.176.578-2.257.99.798 1.147 1.964z" transform="translate(-354.741 -78.889)" style="fill:#ebebeb"/>
                <path data-name="패스 862523" d="M410.322 87.15c-.157 1.166.1 2.176.578 2.257s.99-.8 1.147-1.964-.1-2.176-.578-2.257-.99.798-1.147 1.964z" transform="translate(-394.886 -78.889)" style="fill:#ebebeb"/>
                <path data-name="패스 862524" d="m362.7 62.541-.53-3.491a2.487 2.487 0 0 1 .028-1.266.855.855 0 0 1 1.007-.566c-.16-.809.735-1.407 1.516-1.676a9.056 9.056 0 0 1 4.081-.5 5.9 5.9 0 0 1 3.635 1.812 3.233 3.233 0 0 1 .684 1.11 4.8 4.8 0 0 1-.076 2.494l-.412 1.965a.877.877 0 0 1-.168.42.89.89 0 0 1-.681.2l-7.808.017c-.489 0-1.128-.119-1.193-.6" transform="translate(-356.747 -54.979)" style="fill:#ebebeb"/>
            </g>
        </g>
    </g>
</svg>
